<svg width="49" height="49" viewBox="0 0 49 49" fill="none" xmlns="http://www.w3.org/2000/svg">
<circle cx="24.5" cy="24.5" r="24" fill="#FFEA9F" stroke="#C6B57B"/>
<path d="M16.7812 37C16.3062 37 15.8906 36.82 15.5344 36.46C15.1781 36.1 15 35.68 15 35.2V14.8C15 14.32 15.1781 13.9 15.5344 13.54C15.8906 13.18 16.3062 13 16.7812 13H27.4984L34 19.57V35.2C34 35.68 33.8219 36.1 33.4656 36.46C33.1094 36.82 32.6938 37 32.2188 37H16.7812ZM23.6094 33.37H25.3906V32.17H27.1719C27.4292 32.17 27.6419 32.085 27.8102 31.915C27.9784 31.745 28.0625 31.53 28.0625 31.27V27.37C28.0625 27.11 27.9784 26.895 27.8102 26.725C27.6419 26.555 27.4292 26.47 27.1719 26.47H22.7188V24.37H28.0625V22.57H25.3906V21.37H23.6094V22.57H21.8281C21.5708 22.57 21.3581 22.655 21.1898 22.825C21.0216 22.995 20.9375 23.21 20.9375 23.47V27.37C20.9375 27.63 21.0216 27.845 21.1898 28.015C21.3581 28.185 21.5708 28.27 21.8281 28.27H26.2812V30.37H20.9375V32.17H23.6094V33.37ZM26.7562 19.57H31.4766L26.7562 14.8V19.57Z" fill="#0C1D2E"/>
</svg>
