<svg width="49" height="49" viewBox="0 0 49 49" fill="none" xmlns="http://www.w3.org/2000/svg">
<circle cx="24.5" cy="24.5" r="24" fill="#FFEA9F" stroke="#C6B57B"/>
<path d="M15.8261 34.9041C15.161 34.9041 14.5945 34.6649 14.1265 34.1865C13.6585 33.7081 13.4246 33.1289 13.4246 32.449V17.2483C13.4246 16.5612 13.6585 15.9759 14.1265 15.4924C14.5945 15.0088 15.161 14.7671 15.8261 14.7671H33.1481C33.8203 14.7671 34.3928 15.0088 34.8658 15.4924C35.3388 15.9759 35.5752 16.5612 35.5752 17.2483V32.449C35.5752 33.1289 35.3388 33.7081 34.8658 34.1865C34.3928 34.6649 33.8203 34.9041 33.1481 34.9041H15.8261ZM18.0489 30.0722H23.0053V27.9828H18.0489V30.0722ZM27.1045 27.9828L31.9984 22.9681L30.5307 21.4794L27.1045 25.0315L25.6368 23.5427L24.2061 25.0315L27.1045 27.9828ZM18.0489 25.8934H23.0053V23.8039H18.0489V25.8934ZM18.0489 21.7145H23.0053V19.625H18.0489V21.7145Z" fill="#0C1D2E"/>
</svg>
