<svg width="49" height="49" viewBox="0 0 49 49" fill="none" xmlns="http://www.w3.org/2000/svg">
<circle cx="24.5" cy="24.5" r="24" fill="#FFEA9F" stroke="#C6B57B"/>
<path d="M15.75 36C15.2639 36 14.8507 35.8218 14.5104 35.4653C14.1701 35.1088 14 34.6759 14 34.1667V15.8333C14 15.3241 14.1701 14.8912 14.5104 14.5347C14.8507 14.1782 15.2639 14 15.75 14H33.25C33.7361 14 34.1493 14.1782 34.4896 14.5347C34.8299 14.8912 35 15.3241 35 15.8333V34.1667C35 34.6759 34.8299 35.1088 34.4896 35.4653C34.1493 35.8218 33.7361 36 33.25 36H15.75ZM15.75 34.1667H33.25V18.2778H15.75V34.1667ZM24.5 30.9583C22.9444 30.9583 21.5542 30.5204 20.3292 29.6444C19.1042 28.7685 18.2097 27.6278 17.6458 26.2222C18.2097 24.8167 19.1042 23.6759 20.3292 22.8C21.5542 21.9241 22.9444 21.4861 24.5 21.4861C26.0556 21.4861 27.4458 21.9241 28.6708 22.8C29.8958 23.6759 30.7903 24.8167 31.3542 26.2222C30.7903 27.6278 29.8958 28.7685 28.6708 29.6444C27.4458 30.5204 26.0556 30.9583 24.5 30.9583ZM24.5 27.75C24.0917 27.75 23.7465 27.6023 23.4646 27.3069C23.1826 27.0116 23.0417 26.65 23.0417 26.2222C23.0417 25.7944 23.1826 25.4329 23.4646 25.1375C23.7465 24.8421 24.0917 24.6944 24.5 24.6944C24.9083 24.6944 25.2535 24.8421 25.5354 25.1375C25.8174 25.4329 25.9583 25.7944 25.9583 26.2222C25.9583 26.65 25.8174 27.0116 25.5354 27.3069C25.2535 27.6023 24.9083 27.75 24.5 27.75ZM24.5 28.6667C25.1611 28.6667 25.7153 28.4324 26.1625 27.9639C26.6097 27.4954 26.8333 26.9148 26.8333 26.2222C26.8333 25.5296 26.6097 24.9491 26.1625 24.4806C25.7153 24.012 25.1611 23.7778 24.5 23.7778C23.8389 23.7778 23.2847 24.012 22.8375 24.4806C22.3903 24.9491 22.1667 25.5296 22.1667 26.2222C22.1667 26.9148 22.3903 27.4954 22.8375 27.9639C23.2847 28.4324 23.8389 28.6667 24.5 28.6667Z" fill="#0C1D2E"/>
</svg>
