<svg width="49" height="49" viewBox="0 0 49 49" fill="none" xmlns="http://www.w3.org/2000/svg">
<circle cx="24.5" cy="24.5" r="24" fill="#FFEA9F" stroke="#C6B57B"/>
<path d="M14.725 37C14.265 37 13.8625 36.82 13.5175 36.46C13.1725 36.1 13 35.68 13 35.2V20.8C13 20.32 13.1725 19.9 13.5175 19.54C13.8625 19.18 14.265 19 14.725 19H21.5387V14.8C21.5387 14.32 21.7112 13.9 22.0562 13.54C22.4012 13.18 22.8038 13 23.2638 13H25.765C26.225 13 26.6275 13.18 26.9725 13.54C27.3175 13.9 27.49 14.32 27.49 14.8V19H34.275C34.735 19 35.1375 19.18 35.4825 19.54C35.8275 19.9 36 20.32 36 20.8V35.2C36 35.68 35.8275 36.1 35.4825 36.46C35.1375 36.82 34.735 37 34.275 37H14.725ZM17.37 31.99H24.2412V31.57C24.2412 31.21 24.155 30.89 23.9825 30.61C23.81 30.33 23.5896 30.14 23.3212 30.04C22.7079 29.82 22.2288 29.675 21.8837 29.605C21.5388 29.535 21.2033 29.5 20.8775 29.5C20.5133 29.5 20.1252 29.545 19.7131 29.635C19.301 29.725 18.8362 29.86 18.3187 30.04C18.0312 30.14 17.8012 30.33 17.6287 30.61C17.4563 30.89 17.37 31.21 17.37 31.57V31.99ZM27.03 29.98H31.9175V28.48H27.03V29.98ZM20.8775 28.48C21.3183 28.48 21.6873 28.325 21.9844 28.015C22.2815 27.705 22.43 27.32 22.43 26.86C22.43 26.4 22.2815 26.015 21.9844 25.705C21.6873 25.395 21.3183 25.24 20.8775 25.24C20.4367 25.24 20.0677 25.395 19.7706 25.705C19.4735 26.015 19.325 26.4 19.325 26.86C19.325 27.32 19.4735 27.705 19.7706 28.015C20.0677 28.325 20.4367 28.48 20.8775 28.48ZM27.03 26.59H31.9175V25.09H27.03V26.59ZM23.2638 20.8H25.765V14.8H23.2638V20.8Z" fill="#0C1D2E"/>
</svg>
