<svg width="23" height="22" viewBox="0 0 23 22" fill="none" xmlns="http://www.w3.org/2000/svg">
<path d="M16.019 13.614C14.9819 13.614 14.1014 13.2534 13.3775 12.5322C12.6537 11.811 12.2917 10.9352 12.2917 9.90491C12.2917 8.87462 12.6546 8.00121 13.3802 7.28468C14.1059 6.56815 14.9871 6.20989 16.0238 6.20989C17.0604 6.20989 17.9455 6.56883 18.6791 7.2867C19.4127 8.00457 19.7795 8.87627 19.7795 9.9018C19.7795 10.9347 19.4139 11.8116 18.6827 12.5326C17.9515 13.2535 17.0636 13.614 16.019 13.614ZM9.07118 22V18.4174C9.07118 17.95 9.18253 17.5105 9.40523 17.0988C9.62795 16.6871 9.93706 16.3659 10.3326 16.1351C10.8761 15.799 11.4369 15.5159 12.015 15.2859C12.5931 15.0559 13.1953 14.8613 13.8215 14.7021L16.0222 17.2497L18.196 14.7021C18.8222 14.8613 19.4244 15.0559 20.0026 15.2859C20.5807 15.5159 21.1415 15.799 21.6849 16.1351C22.0786 16.3728 22.3962 16.6924 22.6377 17.0938C22.8792 17.4951 23 17.9275 23 18.3908V22H9.07118ZM7.46091 18.4174V20.4608H2.52275C1.829 20.4608 1.23509 20.2139 0.741046 19.7202C0.247015 19.2265 0 18.633 0 17.9397V2.49457C0 1.80856 0.247015 1.22131 0.741046 0.732794C1.23509 0.244265 1.829 0 2.52275 0H18.1424C18.8435 0 19.4437 0.244265 19.943 0.732794C20.4423 1.22131 20.6919 1.80856 20.6919 2.49457V7.32449C20.2447 6.49296 19.5871 5.83394 18.7194 5.34741C17.8516 4.86088 16.9525 4.61761 16.0222 4.61761C15.4496 4.61761 14.9129 4.71049 14.4119 4.89626C13.9109 5.08203 13.4636 5.34298 13.07 5.67913V5.14837H5.20653V6.74065H12.7211C12.2023 6.98834 11.755 7.3466 11.3792 7.81544C11.0035 8.28428 10.753 8.81946 10.6278 9.42099H5.20653V11.0133H10.8156C10.8693 11.5263 11.008 12.0129 11.2316 12.4729C11.4553 12.9329 11.746 13.3398 12.1039 13.6936H5.20653V15.2859H8.82964C8.38234 15.6751 8.0424 16.1484 7.8098 16.7057C7.57721 17.263 7.46091 17.8335 7.46091 18.4174Z" fill="#0C1D2E"/>
</svg>
