<svg width="21" height="24" viewBox="0 0 21 24" fill="none" xmlns="http://www.w3.org/2000/svg">
<path d="M14.042 21.8679V19.5076H18.605V8.93668H3.93277V14.0338H1.56303V4.39192C1.56303 3.73133 1.79391 3.16863 2.25567 2.70381C2.71744 2.23897 3.27647 2.00655 3.93277 2.00655H5.34454V0.5H7.41176V2.00655H15.1261V0.5H17.1933V2.00655H18.605C19.2683 2.00655 19.8333 2.23897 20.2999 2.70381C20.7666 3.16863 21 3.73133 21 4.39192V19.5076C21 20.1613 20.7666 20.7181 20.2999 21.178C19.8333 21.6379 19.2683 21.8679 18.605 21.8679H14.042ZM7.23529 23.5L5.57143 21.8428L7.9916 19.4072H0V17.0469H7.9916L5.57143 14.6114L7.23529 12.9541L12.5294 18.2271L7.23529 23.5Z" fill="#0C1D2E"/>
</svg>
