<svg width="21" height="24" viewBox="0 0 21 24" fill="none" xmlns="http://www.w3.org/2000/svg">
<path d="M14.347 18.9206C14.9821 18.9206 15.5217 18.6942 15.9659 18.2415C16.4101 17.7888 16.6322 17.2228 16.6322 16.5436C16.6322 15.8814 16.4125 15.3145 15.9731 14.8428C15.5336 14.3712 14.9986 14.1353 14.3678 14.1353C13.7137 14.1353 13.1667 14.3677 12.7268 14.8325C12.2869 15.2973 12.067 15.8633 12.067 16.5305C12.067 17.2149 12.2841 17.7843 12.7183 18.2388C13.1525 18.6933 13.6954 18.9206 14.347 18.9206ZM19.396 23.5L16.6816 20.67C16.3196 20.893 15.9479 21.0602 15.5663 21.1717C15.1848 21.2832 14.7833 21.3389 14.3619 21.3389C13.0856 21.3389 11.9933 20.8719 11.085 19.9379C10.1768 19.0038 9.72268 17.8672 9.72268 16.528C9.72268 15.2059 10.1768 14.0735 11.085 13.1309C11.9933 12.1883 13.0856 11.717 14.3619 11.717C15.6218 11.717 16.7059 12.1883 17.6141 13.1309C18.5224 14.0735 18.9765 15.2059 18.9765 16.528C18.9765 16.9825 18.9186 17.4082 18.8029 17.8051C18.6871 18.202 18.5229 18.5824 18.3102 18.9463L21 21.7763L19.396 23.5ZM2.31962 22.3937C1.6772 22.3937 1.12999 22.1581 0.677996 21.6869C0.225999 21.2157 0 20.6452 0 19.9754V2.94407C0 2.26723 0.225999 1.69067 0.677996 1.21441C1.12999 0.738138 1.6772 0.5 2.31962 0.5H11.2773L17.0517 6.52013V10.8166C16.624 10.6107 16.1855 10.4521 15.7364 10.3406C15.2872 10.2291 14.8291 10.1734 14.3619 10.1734C13.7011 10.1734 13.0835 10.2634 12.5091 10.4435C11.9347 10.6236 11.3931 10.8852 10.8844 11.2282H4.54054V13.0548H9.22914C8.96592 13.4321 8.76028 13.8352 8.61222 14.264C8.46416 14.6928 8.36545 15.1387 8.3161 15.6018H4.54054V17.4284H8.29142C8.48884 18.5776 8.93302 19.5938 9.62397 20.4771C10.3149 21.3604 11.1786 21.9993 12.215 22.3937H2.31962ZM10.0435 7.72931H14.7074L10.0435 2.94407V7.72931Z" fill="#0C1D2E"/>
</svg>
