<svg width="14" height="14" viewBox="0 0 14 14" fill="none" xmlns="http://www.w3.org/2000/svg">
<path d="M13.4746 10.4512L12.8652 13.0156C12.7891 13.3965 12.4844 13.6504 12.1035 13.6504C5.70508 13.625 0.5 8.41992 0.5 2.02148C0.5 1.64062 0.728516 1.33594 1.10938 1.25977L3.67383 0.650391C4.0293 0.574219 4.41016 0.777344 4.5625 1.10742L5.75586 3.875C5.88281 4.20508 5.80664 4.58594 5.52734 4.78906L4.15625 5.90625C5.01953 7.6582 6.44141 9.08008 8.21875 9.94336L9.33594 8.57227C9.53906 8.31836 9.91992 8.2168 10.25 8.34375L13.0176 9.53711C13.3477 9.71484 13.5508 10.0957 13.4746 10.4512Z" fill="#0C1D2E"/>
</svg>
