<svg width="49" height="50" viewBox="0 0 49 50" fill="none" xmlns="http://www.w3.org/2000/svg">
<circle opacity="0.2" cx="24.5" cy="25" r="24" transform="rotate(90 24.5 25)" stroke="#0C1D2E"/>
<path d="M20.875 16.9737V14.5789C20.875 14.1579 21.04 13.7895 21.37 13.4737C21.7 13.1579 22.085 13 22.525 13H27.475C27.915 13 28.3 13.1579 28.63 13.4737C28.96 13.7895 29.125 14.1579 29.125 14.5789V16.9737H34.35C34.79 16.9737 35.175 17.1316 35.505 17.4474C35.835 17.7632 36 18.1316 36 18.5526V24.8421H27.5025V23.2632H22.5525V24.8421H14V18.5526C14 18.1316 14.165 17.7632 14.495 17.4474C14.825 17.1316 15.21 16.9737 15.65 16.9737H20.875ZM22.525 16.9737H27.475V14.5789H22.525V16.9737ZM24.2025 26.4211V24.8421H25.8525V26.4211H24.2025ZM14 26.4211H22.5525V28H27.5025V26.4211H36V31.4211C36 31.8421 35.835 32.2105 35.505 32.5263C35.175 32.8421 34.79 33 34.35 33H15.65C15.21 33 14.825 32.8421 14.495 32.5263C14.165 32.2105 14 31.8421 14 31.4211V26.4211Z" fill="#0C1D2E"/>
</svg>
