<svg width="13" height="10" viewBox="0 0 13 10" fill="none" xmlns="http://www.w3.org/2000/svg">
<path d="M11.7812 0.25C12.4414 0.25 13 0.808594 13 1.46875C13 1.875 12.7969 2.23047 12.4922 2.45898L6.98242 6.59766C6.67773 6.82617 6.29688 6.82617 5.99219 6.59766L0.482422 2.45898C0.177734 2.23047 0 1.875 0 1.46875C0 0.808594 0.533203 0.25 1.21875 0.25H11.7812ZM5.50977 7.25781C6.09375 7.68945 6.88086 7.68945 7.46484 7.25781L13 3.09375V8.375C13 9.28906 12.2637 10 11.375 10H1.625C0.710938 10 0 9.28906 0 8.375V3.09375L5.50977 7.25781Z" fill="#0C1D2E"/>
</svg>
