<svg width="10" height="14" viewBox="0 0 10 14" fill="none" xmlns="http://www.w3.org/2000/svg">
<path d="M1.34375 0.625C1.00521 0.641927 0.717448 0.760417 0.480469 0.980469C0.260417 1.21745 0.141927 1.50521 0.125 1.84375V12.4062C0.141927 12.7448 0.260417 13.0326 0.480469 13.2695C0.717448 13.4896 1.00521 13.6081 1.34375 13.625H3.78125V11.5938C3.79818 11.2552 3.91667 10.9674 4.13672 10.7305C4.3737 10.5104 4.66146 10.3919 5 10.375C5.33854 10.3919 5.6263 10.5104 5.86328 10.7305C6.08333 10.9674 6.20182 11.2552 6.21875 11.5938V13.625H8.65625C8.99479 13.6081 9.28255 13.4896 9.51953 13.2695C9.73958 13.0326 9.85807 12.7448 9.875 12.4062V1.84375C9.85807 1.50521 9.73958 1.21745 9.51953 0.980469C9.28255 0.760417 8.99479 0.641927 8.65625 0.625H1.34375ZM1.75 6.71875C1.76693 6.46484 1.90234 6.32943 2.15625 6.3125H2.96875C3.22266 6.32943 3.35807 6.46484 3.375 6.71875V7.53125C3.35807 7.78516 3.22266 7.92057 2.96875 7.9375H2.15625C1.90234 7.92057 1.76693 7.78516 1.75 7.53125V6.71875ZM4.59375 6.3125H5.40625C5.66016 6.32943 5.79557 6.46484 5.8125 6.71875V7.53125C5.79557 7.78516 5.66016 7.92057 5.40625 7.9375H4.59375C4.33984 7.92057 4.20443 7.78516 4.1875 7.53125V6.71875C4.20443 6.46484 4.33984 6.32943 4.59375 6.3125ZM6.625 6.71875C6.64193 6.46484 6.77734 6.32943 7.03125 6.3125H7.84375C8.09766 6.32943 8.23307 6.46484 8.25 6.71875V7.53125C8.23307 7.78516 8.09766 7.92057 7.84375 7.9375H7.03125C6.77734 7.92057 6.64193 7.78516 6.625 7.53125V6.71875ZM2.15625 3.0625H2.96875C3.22266 3.07943 3.35807 3.21484 3.375 3.46875V4.28125C3.35807 4.53516 3.22266 4.67057 2.96875 4.6875H2.15625C1.90234 4.67057 1.76693 4.53516 1.75 4.28125V3.46875C1.76693 3.21484 1.90234 3.07943 2.15625 3.0625ZM4.1875 3.46875C4.20443 3.21484 4.33984 3.07943 4.59375 3.0625H5.40625C5.66016 3.07943 5.79557 3.21484 5.8125 3.46875V4.28125C5.79557 4.53516 5.66016 4.67057 5.40625 4.6875H4.59375C4.33984 4.67057 4.20443 4.53516 4.1875 4.28125V3.46875ZM7.03125 3.0625H7.84375C8.09766 3.07943 8.23307 3.21484 8.25 3.46875V4.28125C8.23307 4.53516 8.09766 4.67057 7.84375 4.6875H7.03125C6.77734 4.67057 6.64193 4.53516 6.625 4.28125V3.46875C6.64193 3.21484 6.77734 3.07943 7.03125 3.0625Z" fill="#0C1D2E"/>
</svg>
