<svg width="49" height="50" viewBox="0 0 49 50" fill="none" xmlns="http://www.w3.org/2000/svg">
<circle opacity="0.2" cx="24.5" cy="25" r="24" transform="rotate(90 24.5 25)" stroke="#0C1D2E"/>
<path d="M24.5 35C23.5909 34.253 22.6061 33.6731 21.5455 33.2603C20.4848 32.8474 19.3864 32.641 18.25 32.641C17.4545 32.641 16.6733 32.7491 15.9062 32.9654C15.1392 33.1816 14.4053 33.4863 13.7045 33.8795C13.3068 34.0957 12.9233 34.0859 12.554 33.85C12.1847 33.6141 12 33.2701 12 32.8179V18.6051C12 18.3889 12.0521 18.1825 12.1562 17.9859C12.2604 17.7893 12.4167 17.6419 12.625 17.5436C13.4962 17.0718 14.4053 16.7179 15.3523 16.4821C16.2992 16.2462 17.2652 16.1282 18.25 16.1282C19.3485 16.1282 20.4233 16.2756 21.4744 16.5705C22.5256 16.8654 23.5341 17.3077 24.5 17.8974V32.8179C25.4659 32.1692 26.4792 31.6827 27.5398 31.3583C28.6004 31.034 29.6705 30.8718 30.75 30.8718C31.4318 30.8718 32.1752 30.9406 32.9801 31.0782C33.785 31.2158 34.5568 31.5009 35.2955 31.9333V17.0423C35.4848 17.1209 35.6695 17.1996 35.8494 17.2782C36.0294 17.3568 36.2045 17.4453 36.375 17.5436C36.5644 17.6615 36.7159 17.8139 36.8295 18.0006C36.9432 18.1874 37 18.3889 37 18.6051V32.8179C37 33.2701 36.8153 33.6141 36.446 33.85C36.0767 34.0859 35.6932 34.0957 35.2955 33.8795C34.5947 33.4863 33.8608 33.1816 33.0938 32.9654C32.3267 32.7491 31.5455 32.641 30.75 32.641C29.6136 32.641 28.5152 32.8474 27.4545 33.2603C26.3939 33.6731 25.4091 34.253 24.5 35ZM26.2045 30.0756V19.6667L33.5909 12V23.4115L26.2045 30.0756Z" fill="#0C1D2E"/>
</svg>
